<?xml version="1.0" standalone="no"?>
<!DOCTYPE svg PUBLIC "-//W3C//DTD SVG 20010904//EN"
 "http://www.w3.org/TR/2001/REC-SVG-20010904/DTD/svg10.dtd">
<svg version="1.0" xmlns="http://www.w3.org/2000/svg"
 width="424.000000pt" height="424.000000pt" viewBox="0 0 424.000000 424.000000"
 preserveAspectRatio="xMidYMid meet">
<metadata>
Created by potrace 1.14, written by Peter Selinger 2001-2017
</metadata>
<g transform="translate(0.000000,424.000000) scale(0.100000,-0.100000)"
fill="#000000" stroke="none">
<path d="M1500 3876 c-60 -16 -88 -32 -153 -86 -85 -70 -173 -197 -235 -340
-34 -78 -75 -221 -66 -229 5 -5 70 -11 144 -15 312 -14 530 -73 696 -186 52
-36 129 -122 154 -171 l19 -37 93 25 c115 30 290 41 380 23 97 -18 181 -63
255 -136 36 -36 67 -63 68 -62 2 2 15 36 29 77 82 229 67 504 -43 752 -54 124
-199 338 -214 318 -2 -2 -32 -44 -67 -94 -35 -49 -105 -131 -155 -180 -134
-134 -245 -182 -373 -163 -164 25 -295 187 -319 393 -6 56 -30 90 -80 111 -39
17 -73 17 -133 0z"/>
<path d="M1730 3779 c1 -59 62 -203 109 -255 54 -61 171 -141 171 -118 0 17
-64 137 -102 190 -67 95 -178 210 -178 183z"/>
<path d="M2969 3242 c-4 -28 6 -86 26 -144 46 -136 120 -229 221 -279 54 -27
72 -31 121 -27 32 2 73 11 91 20 30 16 32 15 32 -2 0 -24 -62 -117 -106 -157
-117 -109 -270 -144 -390 -89 -32 15 -66 34 -75 42 -15 13 -18 9 -33 -43 -46
-154 -119 -321 -177 -405 -11 -14 -19 -28 -19 -30 0 -1 31 -2 70 0 125 6 197
-32 240 -130 55 -126 18 -276 -98 -396 -138 -141 -396 -305 -604 -382 l-56
-21 -30 -82 c-21 -57 -26 -83 -18 -85 18 -4 220 79 347 143 403 203 684 432
928 760 115 153 173 247 233 371 58 121 64 136 89 228 27 100 28 112 29 217 2
269 -178 435 -525 484 -95 14 -294 18 -296 7z"/>
<path d="M1039 3166 c0 -6 -2 -20 -5 -31 -8 -40 -18 -161 -18 -225 0 -219 53
-437 149 -618 62 -117 59 -116 113 -52 152 178 358 344 597 480 61 35 112 65
114 66 21 18 -102 147 -197 208 -107 69 -286 137 -399 152 -21 2 -49 7 -63 9
-95 17 -290 25 -291 11z"/>
<path d="M829 3154 c-388 -57 -687 -204 -748 -367 -26 -69 -6 -137 61 -208 55
-58 82 -78 313 -234 308 -208 455 -326 655 -526 264 -265 446 -483 611 -737
72 -111 197 -353 222 -432 l15 -45 11 43 c6 23 16 61 22 85 78 314 268 795
392 994 13 21 27 45 32 53 5 8 -5 5 -26 -9 -55 -36 -167 -87 -259 -116 -87
-27 -205 -36 -294 -21 -167 28 -356 134 -501 281 -252 256 -360 578 -349 1045
2 85 6 168 9 183 5 27 5 28 -37 26 -24 -2 -82 -8 -129 -15z"/>
<path d="M1862 2658 c-17 -17 -15 -36 7 -47 25 -14 50 13 35 37 -14 21 -27 25
-42 10z"/>
<path d="M2515 2658 c-6 -15 -75 -349 -75 -360 0 -17 40 -7 50 12 6 11 9 20 6
20 -2 0 2 21 8 48 l12 47 55 3 c93 6 149 58 149 139 0 40 -21 73 -57 92 -30
15 -142 14 -148 -1z m153 -92 c5 -57 -28 -83 -111 -91 -27 -3 -29 8 -16 79 11
59 15 65 38 68 14 2 40 -1 56 -7 25 -10 31 -18 33 -49z"/>
<path d="M2091 2580 c21 -44 39 -83 39 -87 0 -3 -28 -43 -62 -87 -34 -45 -66
-87 -71 -93 -7 -10 -2 -13 20 -13 25 0 38 11 78 63 27 34 52 66 56 71 4 5 22
-24 40 -63 29 -64 35 -71 61 -71 l28 0 -23 48 c-51 103 -65 137 -58 147 5 6
31 41 59 78 29 38 52 72 52 77 0 4 -12 7 -27 6 -19 -1 -36 -15 -64 -53 -21
-28 -42 -54 -47 -57 -5 -3 -22 22 -37 54 -25 52 -32 60 -56 60 l-27 0 39 -80z"/>
<path d="M1827 2564 c-3 -16 0 -24 9 -24 17 0 18 -46 3 -110 -29 -123 11 -175
98 -129 18 10 20 16 12 31 -6 11 -16 18 -22 15 -53 -20 -56 -19 -51 10 3 15 9
53 14 83 5 30 12 76 15 102 l6 47 -39 -1 c-34 0 -41 -4 -45 -24z"/>
<path d="M2347 2533 c-12 -11 -7 -41 7 -46 21 -8 48 16 40 36 -6 17 -35 23
-47 10z"/>
<path d="M3775 2442 c-8 -31 -36 -94 -113 -251 -82 -169 -221 -369 -353 -508
-27 -29 -49 -54 -49 -57 0 -2 21 -7 46 -11 25 -3 55 -8 66 -10 11 -3 45 -7 75
-11 54 -6 55 -6 93 35 53 56 82 147 85 265 l2 90 56 13 c105 24 195 79 295
182 81 83 124 156 126 213 1 61 -11 65 -176 71 l-146 5 -7 -26z"/>
<path d="M1551 2385 c-124 -41 -215 -239 -157 -342 30 -53 79 -78 138 -69 51
8 138 58 138 80 0 23 -30 27 -58 7 -38 -26 -99 -44 -127 -37 -30 8 -54 42 -56
81 -3 52 -1 54 49 53 133 -1 222 62 222 157 0 35 -27 74 -52 76 -7 1 -24 2
-38 3 -14 2 -40 -2 -59 -9z m87 -44 c18 -1 14 -53 -6 -78 -9 -12 -34 -28 -56
-37 -40 -17 -126 -22 -126 -8 0 4 14 27 31 50 34 46 88 80 123 76 11 -1 27 -3
34 -3z"/>
<path d="M245 2283 c-160 -28 -199 -45 -203 -89 -2 -23 5 -39 30 -65 100 -105
261 -178 643 -288 274 -80 457 -228 569 -461 28 -58 35 -94 9 -45 -96 179
-229 310 -341 336 -32 7 -32 7 -47 -46 -29 -97 -18 -242 27 -350 53 -129 174
-265 283 -319 120 -58 307 -83 465 -61 25 4 51 7 58 7 6 1 12 6 12 13 0 20
-134 233 -229 365 -148 204 -228 297 -436 505 -246 247 -457 418 -620 504 -48
25 -44 25 -220 -6z"/>
<path d="M2180 2105 c-136 -20 -157 -24 -250 -50 -134 -38 -334 -113 -428
-161 l-23 -12 33 -25 c127 -97 286 -159 438 -172 52 -4 58 -3 90 29 53 50 158
125 223 157 75 38 135 47 178 25 17 -9 33 -16 35 -16 5 0 134 201 134 209 0
24 -293 35 -430 16z"/>
<path d="M2880 2008 c-52 -31 -224 -142 -230 -148 -3 -3 -25 -21 -50 -40 -25
-19 -64 -52 -88 -75 -66 -61 -169 -226 -192 -305 l-8 -29 61 43 c79 53 257
144 367 185 132 50 132 50 170 126 32 63 35 78 35 152 0 105 -13 123 -65 91z"/>
<path d="M2836 1273 c-62 -40 -320 -169 -410 -204 -44 -18 -128 -46 -185 -63
l-104 -32 -29 -94 c-16 -52 -31 -102 -33 -110 -2 -8 -10 -37 -19 -64 l-15 -49
36 -33 c79 -72 213 -90 311 -40 168 85 380 335 457 541 25 64 47 176 36 174
-3 0 -24 -12 -45 -26z"/>
<path d="M1574 820 c2 -8 8 -33 12 -55 11 -59 10 -58 29 -121 33 -113 105
-235 170 -286 38 -29 96 -48 116 -37 66 35 35 245 -64 434 l-42 80 -112 0
c-97 1 -112 -2 -109 -15z"/>
</g>
</svg>
